<svg xmlns="http://www.w3.org/2000/svg" viewBox="0 0 791 1058"><defs><style>.cls-1{fill:#3aae84;}</style></defs><g id="Layer_2" data-name="Layer 2"><g id="Layer_2-2" data-name="Layer 2"><path class="cls-1" d="M71,35.5A35.5,35.5,0,1,1,35.5,0,35.5,35.5,0,0,1,71,35.5ZM179.5,0A35.5,35.5,0,1,0,215,35.5,35.5,35.5,0,0,0,179.5,0Zm144,0A35.5,35.5,0,1,0,359,35.5,35.5,35.5,0,0,0,323.5,0Zm0,141A35.5,35.5,0,1,0,359,176.5,35.5,35.5,0,0,0,323.5,141Zm-144,0A35.5,35.5,0,1,0,215,176.5,35.5,35.5,0,0,0,179.5,141Zm-144,0A35.5,35.5,0,1,0,71,176.5,35.5,35.5,0,0,0,35.5,141Zm0,141A35.5,35.5,0,1,0,71,317.5,35.5,35.5,0,0,0,35.5,282Zm144,0A35.5,35.5,0,1,0,215,317.5,35.5,35.5,0,0,0,179.5,282Zm144,0A35.5,35.5,0,1,0,359,317.5,35.5,35.5,0,0,0,323.5,282Zm0,141A35.5,35.5,0,1,0,359,458.5,35.5,35.5,0,0,0,323.5,423Zm-144,0A35.5,35.5,0,1,0,215,458.5,35.5,35.5,0,0,0,179.5,423Zm-144,0A35.5,35.5,0,1,0,71,458.5,35.5,35.5,0,0,0,35.5,423ZM467.5,0A35.5,35.5,0,1,0,503,35.5,35.5,35.5,0,0,0,467.5,0Zm144,0A35.5,35.5,0,1,0,647,35.5,35.5,35.5,0,0,0,611.5,0Zm144,0A35.5,35.5,0,1,0,791,35.5,35.5,35.5,0,0,0,755.5,0Zm0,141A35.5,35.5,0,1,0,791,176.5,35.5,35.5,0,0,0,755.5,141Zm-144,0A35.5,35.5,0,1,0,647,176.5,35.5,35.5,0,0,0,611.5,141Zm-144,0A35.5,35.5,0,1,0,503,176.5,35.5,35.5,0,0,0,467.5,141Zm0,141A35.5,35.5,0,1,0,503,317.5,35.5,35.5,0,0,0,467.5,282Zm144,0A35.5,35.5,0,1,0,647,317.5,35.5,35.5,0,0,0,611.5,282Zm144,0A35.5,35.5,0,1,0,791,317.5,35.5,35.5,0,0,0,755.5,282Zm0,141A35.5,35.5,0,1,0,791,458.5,35.5,35.5,0,0,0,755.5,423Zm-144,0A35.5,35.5,0,1,0,647,458.5,35.5,35.5,0,0,0,611.5,423Zm-144,0A35.5,35.5,0,1,0,503,458.5,35.5,35.5,0,0,0,467.5,423ZM35.5,564A35.5,35.5,0,1,0,71,599.5,35.5,35.5,0,0,0,35.5,564Zm144,0A35.5,35.5,0,1,0,215,599.5,35.5,35.5,0,0,0,179.5,564Zm144,0A35.5,35.5,0,1,0,359,599.5,35.5,35.5,0,0,0,323.5,564Zm0,141A35.5,35.5,0,1,0,359,740.5,35.5,35.5,0,0,0,323.5,705Zm-144,0A35.5,35.5,0,1,0,215,740.5,35.5,35.5,0,0,0,179.5,705Zm-144,0A35.5,35.5,0,1,0,71,740.5,35.5,35.5,0,0,0,35.5,705Zm0,141A35.5,35.5,0,1,0,71,881.5,35.5,35.5,0,0,0,35.5,846Zm144,0A35.5,35.5,0,1,0,215,881.5,35.5,35.5,0,0,0,179.5,846Zm144,0A35.5,35.5,0,1,0,359,881.5,35.5,35.5,0,0,0,323.5,846Zm0,141a35.5,35.5,0,1,0,35.5,35.5A35.5,35.5,0,0,0,323.5,987Zm-144,0a35.5,35.5,0,1,0,35.5,35.5A35.5,35.5,0,0,0,179.5,987Zm-144,0A35.5,35.5,0,1,0,71,1022.5,35.5,35.5,0,0,0,35.5,987Zm432-423A35.5,35.5,0,1,0,503,599.5,35.5,35.5,0,0,0,467.5,564Zm144,0A35.5,35.5,0,1,0,647,599.5,35.5,35.5,0,0,0,611.5,564Zm144,0A35.5,35.5,0,1,0,791,599.5,35.5,35.5,0,0,0,755.5,564Zm0,141A35.5,35.5,0,1,0,791,740.5,35.5,35.5,0,0,0,755.5,705Zm-144,0A35.5,35.5,0,1,0,647,740.5,35.5,35.5,0,0,0,611.5,705Zm-144,0A35.5,35.5,0,1,0,503,740.5,35.5,35.5,0,0,0,467.5,705Zm0,141A35.5,35.5,0,1,0,503,881.5,35.5,35.5,0,0,0,467.5,846Zm144,0A35.5,35.5,0,1,0,647,881.5,35.5,35.5,0,0,0,611.5,846Zm144,0A35.5,35.5,0,1,0,791,881.5,35.5,35.5,0,0,0,755.5,846Zm0,141a35.5,35.5,0,1,0,35.5,35.5A35.5,35.5,0,0,0,755.5,987Zm-144,0a35.5,35.5,0,1,0,35.5,35.5A35.5,35.5,0,0,0,611.5,987Zm-144,0a35.5,35.5,0,1,0,35.5,35.5A35.5,35.5,0,0,0,467.5,987Z"/></g></g></svg>