<svg xmlns="http://www.w3.org/2000/svg" xmlns:xlink="http://www.w3.org/1999/xlink" viewBox="0 0 1348.79 657.74"><defs><style>.cls-1{fill:#fbc2af;}.cls-2{fill:#fff;}.cls-3{fill:none;stroke:#000;}.cls-15,.cls-3{stroke-miterlimit:10;}.cls-4{fill:#f79277;opacity:0.58;}.cls-5{fill:#2776a9;}.cls-6{fill:#283244;}.cls-7{fill:#3aae84;}.cls-8{fill:#3b5b50;}.cls-9{fill:url(#linear-gradient);}.cls-10{fill:url(#linear-gradient-2);}.cls-11{fill:#f9aa8d;}.cls-12{fill:#edb564;}.cls-13{fill:#d69585;}.cls-14{fill:#c6d1e4;}.cls-15{fill:gray;stroke:#4f4f4f;stroke-width:0.3px;}.cls-16{clip-path:url(#clip-path);}</style><linearGradient id="linear-gradient" x1="353.97" y1="308.47" x2="384.03" y2="338.53" gradientUnits="userSpaceOnUse"><stop offset="0.01" stop-color="#fbc2af" stop-opacity="0"/><stop offset="1" stop-color="#f77768"/></linearGradient><linearGradient id="linear-gradient-2" x1="209.97" y1="308.47" x2="240.03" y2="338.53" xlink:href="#linear-gradient"/><clipPath id="clip-path"><path class="cls-1" d="M1032,110.5c161,0,167,173,167,173s12-213-165-213c-181,0-138,219-138,219S891,110.5,1032,110.5Z"/></clipPath></defs><g id="Layer_2" data-name="Layer 2"><g id="Head"><path class="cls-2" d="M300,408.39a63.21,63.21,0,0,1-31.5-8.42L212,367.44a99.32,99.32,0,0,1-48.86-74l-4.43-37.16a143.88,143.88,0,0,1-6.16-40.44A143.5,143.5,0,0,1,381.91,99.55,144.73,144.73,0,0,1,433.09,172c1.07,3.45,2,7,2.8,10.45a143.74,143.74,0,0,1,3.61,32.1c0,13.79-1.87,22.35-5.59,39.41l-.33,1.5-2.95,34.19a98.38,98.38,0,0,1-44,74L334.82,397.9A63,63,0,0,1,300,408.39Z"/><path d="M296,70.5v1A141.8,141.8,0,0,1,381.61,100a144.17,144.17,0,0,1,51,72.14c1.06,3.44,2,6.94,2.8,10.42a144,144,0,0,1,3.59,32c0,13.74-1.86,22.28-5.58,39.3l-.33,1.51v.12l-2.94,34.13a98.38,98.38,0,0,1-43.74,73.61l-51.85,34.32a62.65,62.65,0,0,1-65.82,2.05L212.21,367a98.48,98.48,0,0,1-48.62-73.64l-4.43-37.16v-.09l0-.08A142.89,142.89,0,0,1,153,215.83a141.33,141.33,0,0,1,10.9-56,144.32,144.32,0,0,1,76.25-77A141.29,141.29,0,0,1,296,71.5v-1m0,0c-79.75,0-144.72,65.59-144,145.34a143.58,143.58,0,0,0,6.16,40.49l4.43,37.16a99.41,99.41,0,0,0,49.11,74.39l56.51,32.52a63.62,63.62,0,0,0,66.87-2.08L387,364a99.44,99.44,0,0,0,44.18-74.36l2.94-34.13c3.93-18,5.93-26.77,5.93-41a144.29,144.29,0,0,0-3.62-32.21q-1.22-5.32-2.81-10.49A144.08,144.08,0,0,0,296,70.5Z"/><path class="cls-3" d="M436.38,182.29q-1.22-5.32-2.81-10.49"/></g><g id="Boy"><g id="Head_copy" data-name="Head copy"><path class="cls-1" d="M440,214.5c0,14.25-2,23-5.93,41l-2.94,34.13A99.44,99.44,0,0,1,387,364l-51.86,34.31a63.62,63.62,0,0,1-66.87,2.08l-56.51-32.52a99.41,99.41,0,0,1-49.11-74.39l-4.43-37.16A143.58,143.58,0,0,1,152,215.84C151.28,136.09,216.25,70.5,296,70.5A144.08,144.08,0,0,1,433.57,171.8q1.59,5.16,2.81,10.49A144.29,144.29,0,0,1,440,214.5Z"/><path class="cls-3" d="M436.38,182.29q-1.22-5.32-2.81-10.49"/><polygon class="cls-4" points="304.97 291.41 316 338.5 324 338.5 304.97 291.41"/></g><g id="Ear_1" data-name="Ear 1"><path class="cls-1" d="M455,296.49l-23.14-1.21a5.66,5.66,0,0,1-5.36-5.66l0-15.36,18.4-31.87,7.73-1.59c11.07-2.28,22.77,1,26.33,11.7v0a12.6,12.6,0,0,0-.49,5.29c.38,3.75-1.41,7.06-3.5,10.68l-8.82,19.92A16.85,16.85,0,0,1,455,296.49Z"/><path class="cls-4" d="M454.31,288.88l-17.48-1.7a4.68,4.68,0,0,1-4.25-4.23L444,276.09a9.57,9.57,0,0,0,4.4-10.39L444.75,250l5.77-.84a18.48,18.48,0,0,1,19.87,11.46h0a11.66,11.66,0,0,1-.58,10.15l-7.37,12.76A11.13,11.13,0,0,1,454.31,288.88Z"/></g><g id="Ear_1_copy" data-name="Ear 1 copy"><path class="cls-1" d="M138,296.49l23.14-1.21a5.66,5.66,0,0,0,5.36-5.66l0-15.36-18.4-31.87-7.73-1.59c-11.07-2.28-22.77,1-26.33,11.7v0a12.6,12.6,0,0,1,.49,5.29c-.38,3.75,1.41,7.06,3.5,10.68l8.82,19.92A16.85,16.85,0,0,0,138,296.49Z"/><path class="cls-4" d="M138.69,288.88l17.48-1.7a4.68,4.68,0,0,0,4.25-4.23L149,276.09a9.57,9.57,0,0,1-4.4-10.39L148.25,250l-5.77-.84a18.48,18.48,0,0,0-19.87,11.46h0a11.66,11.66,0,0,0,.58,10.15l7.37,12.76A11.13,11.13,0,0,0,138.69,288.88Z"/></g><g id="Eyes_copy" data-name="Eyes copy"><ellipse class="cls-2" cx="225" cy="272" rx="22.09" ry="28.5"/><ellipse class="cls-5" cx="225" cy="284.15" rx="14.5" ry="15.15"/><ellipse class="cls-2" cx="231" cy="275" rx="5.5" ry="4" transform="translate(-97.25 420.74) rotate(-73.91)"/><ellipse class="cls-2" cx="355" cy="272" rx="22.09" ry="28.5"/><ellipse class="cls-5" cx="355" cy="284.15" rx="14.5" ry="15.15"/><ellipse class="cls-2" cx="361" cy="275" rx="5.5" ry="4" transform="translate(-3.27 545.65) rotate(-73.91)"/></g><g id="Hair"><path class="cls-6" d="M188.56,158.63a15,15,0,0,1,15-4.35c29,8,119.36,22.82,138.91.72,17.46-19.74,19.94-16.42,20.12-13.68a42.85,42.85,0,0,0,.64,5.18c1.4,7.35,3.36,23.76-6.76,24.5,14.82,15.4,51.56,4.51,59-4a25.08,25.08,0,0,1-10,24c8.36,2.57,15.07-.64,20.38-3.27a6.58,6.58,0,0,1,9.35,4.45c8,37.25-18.73,81.82-18.73,81.82s57-56,62-110-45-142-152-142c-12.65-4.29-42.17-19.35-52-22,10,15,11,12,14,20-23-15-49-18-49-18l19,18s-28-9-82,39c-11,6.5-39,34-32,61-1.77,4.68-7,10-8.52,23.13-9.24,35.52-6.31,80.73,29.52,124.87C155.66,208.2,175.78,172.47,188.56,158.63Z"/><path class="cls-6" d="M435.25,192.24c8,37.24-18.75,81.76-18.75,81.76s56-11,62-110"/></g><g id="Eye_bros" data-name="Eye bros"><path class="cls-6" d="M201.39,250.6c16.06-4.74,41.28-.95,46.61-.07a.25.25,0,0,0,.2-.45c-5.85-4.43-41.38-29.89-47.11.24A.24.24,0,0,0,201.39,250.6Z"/><path class="cls-6" d="M381,251.6c-16.06-4.74-41.28-.95-46.62-.07a.25.25,0,0,1-.19-.45c5.85-4.43,41.37-29.89,47.11.24A.24.24,0,0,1,381,251.6Z"/></g><g id="Arms"><path class="cls-7" d="M530,436.5l55.49,91.16a44.9,44.9,0,0,1-.44,47.41l-30.8,48.57a29.17,29.17,0,0,1-17.58,12.69L492,647.5l-12.55-111a12.85,12.85,0,0,1,1.42-7.48Z"/><g id="hands"><path class="cls-1" d="M511.11,557.7l24.62,26.51a1.45,1.45,0,0,1,.36.68l4.61,32.27a1.46,1.46,0,0,1-1,1.73l-59.8,25.05a1.47,1.47,0,0,1-1.89-1.41V594.05a1.45,1.45,0,0,1,.36-1l30.57-35.35A1.46,1.46,0,0,1,511.11,557.7Z"/><rect class="cls-4" x="489.4" y="620.82" width="19" height="2.62" rx="1.31" transform="matrix(0.92, -0.38, 0.38, 0.92, -200.15, 238.36)"/><rect class="cls-4" x="489.4" y="602.82" width="19" height="2.62" rx="1.31" transform="matrix(0.92, -0.38, 0.38, 0.92, -193.26, 236.99)"/><rect class="cls-4" x="489.4" y="584.82" width="19" height="2.62" rx="1.31" transform="translate(-186.37 235.62) rotate(-22.51)"/><polygon class="cls-8" points="541 617.5 536 635.5 499 645.5 498.89 635.98 541 617.5"/><polygon class="cls-8" points="518.22 501.5 526 523.5 512 542.5 518.22 501.5"/><polygon class="cls-4" points="498 636.5 498 628.5 541 617.5 498 636.5"/></g></g><g id="Arms_copy" data-name="Arms copy"><path class="cls-7" d="M62,436.5,6.55,527.66A44.92,44.92,0,0,0,7,575.07l30.81,48.57a29.18,29.18,0,0,0,17.57,12.69L100,647.5l12.55-111a12.85,12.85,0,0,0-1.42-7.48Z"/><g id="hands_copy" data-name="hands copy"><polygon class="cls-8" points="51.16 617.5 57.22 635.5 102 645.5 102.13 635.98 51.16 617.5"/><path class="cls-1" d="M80.92,557.7,56.31,584.21a1.45,1.45,0,0,0-.36.68l-4.61,32.27a1.46,1.46,0,0,0,1,1.73l59.8,25.05a1.47,1.47,0,0,0,1.89-1.41V594.05a1.45,1.45,0,0,0-.36-1L83.11,557.74A1.47,1.47,0,0,0,80.92,557.7Z"/><rect class="cls-4" x="83.64" y="620.82" width="19" height="2.62" rx="1.31" transform="translate(-58.96 1232.52) rotate(-157.49)"/><rect class="cls-4" x="83.64" y="602.82" width="19" height="2.62" rx="1.31" transform="matrix(-0.92, -0.38, 0.38, -0.92, -52.07, 1197.89)"/><rect class="cls-4" x="83.64" y="584.82" width="19" height="2.62" rx="1.31" transform="translate(-45.18 1163.27) rotate(-157.49)"/><polygon class="cls-8" points="73.82 501.5 66.04 523.5 80.04 542.5 73.82 501.5"/><polygon class="cls-4" points="97 637.5 97 627.5 51 618.5 97 637.5"/></g></g></g><g id="Girl"><g id="Hair_copy" data-name="Hair copy"><path class="cls-6" d="M995,43.64s-91,1.43-151,91.86C805.19,194,811.47,213,812,224.62c33.3-39.54.53,5.1-14,56.38-1.18,4.16,21.2-21.92,20-17.28-13.35,51.61-10.82,108.68-8.57,135.11A44.46,44.46,0,0,1,802,427.3h0c-18.52,27.93-23.52,61.58-13.8,93L802,564.74l238.88-36.83L1317,530.18s32.93-55.67,31.75-108.45c-.71-32-14-63-54.75-79.8-70.84-29.23,10-150-77-241-39-38.2-52-50-156-61.84-18.57-4.65-23.32-.45-49-5.46,11,11.82,7,7.28,7,7.28-16.5-.33-41.65-11.43-51-9.1Z"/></g><g id="Head_copy_2" data-name="Head copy 2"><ellipse class="cls-9" cx="369" cy="323.5" rx="26.05" ry="15"/><ellipse class="cls-10" cx="225" cy="323.5" rx="26.05" ry="15"/><path class="cls-1" d="M1186,251.72c0,13-1.76,20.92-5.21,37.3l-2.58,31c-2.3,27.49-16.59,52.4-38.82,67.62l-45.55,31.21a54.27,54.27,0,0,1-58.74,1.89L985.46,391.2c-23.89-14.23-39.89-39.31-43.15-67.65l-3.89-33.79A135.3,135.3,0,0,1,933,252.94c-.64-72.53,56.43-132.18,126.49-132.18,56.8,0,104.86,38.76,120.85,92.13q1.39,4.7,2.47,9.54A135.72,135.72,0,0,1,1186,251.72Z"/><path class="cls-3" d="M1184.38,224.43q-1.22-4.85-2.81-9.54"/><polygon class="cls-4" points="1052.97 316.66 1064 359.49 1072 359.49 1052.97 316.66"/></g><g id="Ear_1_copy_2" data-name="Ear 1 copy 2"><path class="cls-1" d="M1195.92,336.28l-21.05-1.1A5.13,5.13,0,0,1,1170,330l0-14,16.73-29,7-1.45c10.06-2.07,20.71.9,23.94,10.65v0a11.61,11.61,0,0,0-.44,4.8c.34,3.42-1.28,6.42-3.18,9.72l-8,18.12A15.33,15.33,0,0,1,1195.92,336.28Z"/><path class="cls-4" d="M1195.3,329.36l-15.91-1.55a4.25,4.25,0,0,1-3.86-3.84l10.4-6.24a8.71,8.71,0,0,0,4-9.45L1186.6,294l5.25-.78a16.82,16.82,0,0,1,18.07,10.44h0a10.55,10.55,0,0,1-.53,9.22l-6.7,11.61A10.1,10.1,0,0,1,1195.3,329.36Z"/></g><g id="Ear_1_copy_2-2" data-name="Ear 1 copy 2"><path class="cls-1" d="M913.08,340.28l21-1.1A5.13,5.13,0,0,0,939,334l0-14-16.73-29-7-1.45c-10.06-2.07-20.71.9-23.94,10.65v0a11.61,11.61,0,0,1,.44,4.8c-.34,3.42,1.28,6.42,3.18,9.72l8,18.12A15.33,15.33,0,0,0,913.08,340.28Z"/><path class="cls-4" d="M913.7,333.36l15.91-1.55a4.25,4.25,0,0,0,3.86-3.84l-10.4-6.24a8.71,8.71,0,0,1-4-9.45L922.4,298l-5.25-.78a16.82,16.82,0,0,0-18.07,10.44h0a10.55,10.55,0,0,0,.53,9.22l6.7,11.61A10.1,10.1,0,0,0,913.7,333.36Z"/></g><g id="Eyes_copy_2" data-name="Eyes copy 2"><ellipse class="cls-2" cx="990.45" cy="306.83" rx="19.55" ry="20.46"/><ellipse class="cls-6" cx="990.45" cy="312.81" rx="12.83" ry="10.88"/><ellipse class="cls-2" cx="996.24" cy="304.65" rx="4.73" ry="3.42" transform="translate(148.65 910.37) rotate(-52.55)"/><ellipse class="cls-2" cx="1119.45" cy="306.83" rx="19.55" ry="20.46"/><ellipse class="cls-6" cx="1119.45" cy="312.81" rx="12.83" ry="10.88"/><ellipse class="cls-2" cx="1125.24" cy="304.65" rx="4.73" ry="3.42" transform="translate(199.22 1012.79) rotate(-52.55)"/></g><g id="Eye_bros_copy" data-name="Eye bros copy"><path class="cls-6" d="M963.39,283.55c15.61-13.73,41.28-.87,46.61-.06.27,0,.41-.27.2-.41-5.85-4-41.38-27.18-47.11.21C963.05,283.45,963.26,283.66,963.39,283.55Z"/><path class="cls-6" d="M1143,284.46c-17-14.64-41.28-.87-46.62-.06a.23.23,0,0,1-.19-.41c5.85-4,41.37-27.18,47.11.21C1143.33,284.36,1143.13,284.57,1143,284.46Z"/></g><g id="Layer_29" data-name="Layer 29"><path class="cls-6" d="M920,340.93c-14-52.76,6-121.86,6-121.86s3,29.1,75,20C941,218.16,957,200,957,200s29,33.65,110,34.56c-22-6.36-34.25-23.45-29.37-28.57,4.69-4.94,13-5.18,18.48-.93,12.6,9.86,47,34.55,86.78,44a2.11,2.11,0,0,0,2.65-2.63c-16-40.45,11.46-31.92,11.46-31.92s27,44.39,25,121c22-16.56,34.93-176.78-5-213.21-44.76-40.83-203-32.52-251.57,8.83C884.38,166,867,260.23,920,340.93Z"/></g><g id="Arms_copy_2" data-name="Arms copy 2"><path class="cls-11" d="M1278,455.61l55.49,82.91a37.71,37.71,0,0,1-.44,43.11l-30.8,44.17a29.16,29.16,0,0,1-17.58,11.54L1240,647.5l-12.55-101a10.78,10.78,0,0,1,1.42-6.8Z"/><g id="hands_copy_2" data-name="hands copy 2"><path class="cls-1" d="M1259.11,565.83l24.62,24.11a1.35,1.35,0,0,1,.36.62l4.61,29.35a1.32,1.32,0,0,1-1,1.57l-59.8,22.78A1.45,1.45,0,0,1,1226,643V598.89a1.26,1.26,0,0,1,.36-.87l30.57-32.15A1.56,1.56,0,0,1,1259.11,565.83Z"/><path class="cls-4" d="M1254,620.47l-15.13,5.71a1.15,1.15,0,0,0-.71,1.55h0a1.36,1.36,0,0,0,1.71.65l15.13-5.71a1.15,1.15,0,0,0,.71-1.55h0A1.36,1.36,0,0,0,1254,620.47Z"/><path class="cls-12" d="M1254,604.11l-15.13,5.7a1.15,1.15,0,0,0-.71,1.55h0a1.36,1.36,0,0,0,1.71.65L1255,606.3a1.15,1.15,0,0,0,.71-1.55h0A1.34,1.34,0,0,0,1254,604.11Z"/><path class="cls-12" d="M1254,587.74l-15.13,5.7a1.15,1.15,0,0,0-.71,1.55h0a1.36,1.36,0,0,0,1.71.65l15.13-5.71a1.15,1.15,0,0,0,.71-1.55h0A1.34,1.34,0,0,0,1254,587.74Z"/><polygon class="cls-13" points="1289 620.22 1284 636.59 1247 645.68 1246.89 637.02 1289 620.22"/><polygon class="cls-13" points="1266.22 514.72 1285 534.73 1260 552.01 1266.22 514.72"/><polygon class="cls-4" points="1246 637.5 1246 630.22 1289 620.22 1246 637.5"/></g></g><g id="Arms_copy_2-2" data-name="Arms copy 2"><path class="cls-11" d="M864,455.61l-55.49,82.91a37.71,37.71,0,0,0,.44,43.11l30.8,44.17a29.16,29.16,0,0,0,17.58,11.54L902,647.5l12.55-101a10.78,10.78,0,0,0-1.42-6.8Z"/><g id="hands_copy_2-2" data-name="hands copy 2"><path class="cls-1" d="M882.89,565.83l-24.62,24.11a1.35,1.35,0,0,0-.36.62l-4.61,29.35a1.32,1.32,0,0,0,1,1.57l59.8,22.78A1.45,1.45,0,0,0,916,643V598.89a1.26,1.26,0,0,0-.36-.87l-30.57-32.15A1.56,1.56,0,0,0,882.89,565.83Z"/><path class="cls-4" d="M888,620.47l15.13,5.71a1.15,1.15,0,0,1,.71,1.55h0a1.36,1.36,0,0,1-1.71.65L887,622.67a1.15,1.15,0,0,1-.71-1.55h0A1.36,1.36,0,0,1,888,620.47Z"/><path class="cls-4" d="M888,604.11l15.13,5.7a1.15,1.15,0,0,1,.71,1.55h0a1.36,1.36,0,0,1-1.71.65L887,606.3a1.15,1.15,0,0,1-.71-1.55h0A1.34,1.34,0,0,1,888,604.11Z"/><path class="cls-4" d="M888,587.74l15.13,5.7a1.15,1.15,0,0,1,.71,1.55h0a1.36,1.36,0,0,1-1.71.65L887,589.93a1.15,1.15,0,0,1-.71-1.55h0A1.34,1.34,0,0,1,888,587.74Z"/><polygon class="cls-13" points="853 620.22 858 636.59 895 645.68 895.11 637.02 853 620.22"/><polygon class="cls-13" points="875.78 514.72 868 534.73 882 552.01 875.78 514.72"/><polygon class="cls-4" points="896 637.5 896 630.22 853 620.22 896 637.5"/></g></g><g id="Laptop_copy_2" data-name="Laptop copy 2"><path class="cls-14" d="M1236.3,628.86H903.42a5.9,5.9,0,0,1-5.63-5.14l-47-277.56c-.65-3.86,2-7.42,5.64-7.42h426.81c3.58,0,6.29,3.56,5.63,7.42l-47,277.56A5.9,5.9,0,0,1,1236.3,628.86Z"/><rect class="cls-14" x="898.35" y="628.86" width="342.41" height="28.89" rx="3.73"/><rect class="cls-15" x="909.87" y="638.23" width="49.7" height="10.88"/><rect class="cls-15" x="1179.56" y="637.86" width="49.7" height="10.88"/><rect class="cls-15" x="1120.77" y="637.48" width="49.7" height="10.88"/><rect class="cls-15" x="910.47" y="625.29" width="319.38" height="7.13" rx="3.56"/><path class="cls-15" d="M1042.57,499.84h54.88c-2.91,19.53-14.09,34.08-27.44,34.08S1045.49,519.37,1042.57,499.84Z"/><path class="cls-15" d="M1098.14,492.71c0,.72-.06,1.43-.12,2.14h-56c0-.71-.09-1.42-.12-2.14Z"/><path class="cls-15" d="M1097.45,479.88h-54.88c2.92-19.54,14.1-34.08,27.44-34.08S1094.54,460.34,1097.45,479.88Z"/><path class="cls-15" d="M1098.14,487h-56.26c0-.72.07-1.44.12-2.14h56C1098.08,485.57,1098.12,486.29,1098.14,487Z"/></g><g id="Rebon"><path class="cls-1" d="M1032,110.5c161,0,167,173,167,173s12-213-165-213c-181,0-138,219-138,219S891,110.5,1032,110.5Z"/><g class="cls-16"><circle class="cls-2" cx="996.5" cy="108" r="18.5"/><circle class="cls-2" cx="951.5" cy="89" r="18.5"/><circle class="cls-2" cx="1034.5" cy="77" r="18.5"/><circle class="cls-2" cx="1072.5" cy="116" r="18.5"/><circle class="cls-2" cx="1119.5" cy="109" r="18.5"/><circle class="cls-2" cx="963" cy="123.5" r="11"/><circle class="cls-2" cx="924" cy="120.5" r="11"/><circle class="cls-2" cx="901" cy="179.5" r="11"/><circle class="cls-2" cx="992" cy="74.5" r="11"/><circle class="cls-2" cx="1083" cy="81.5" r="11"/><circle class="cls-2" cx="1034" cy="109.5" r="11"/><circle class="cls-2" cx="1182" cy="168.5" r="11"/><circle class="cls-2" cx="1194" cy="248.5" r="11"/><circle class="cls-2" cx="897" cy="257.5" r="11"/><circle class="cls-2" cx="930.5" cy="155" r="18.5"/><circle class="cls-2" cx="891.5" cy="215" r="18.5"/><circle class="cls-2" cx="1150.5" cy="153" r="18.5"/><circle class="cls-2" cx="1181.5" cy="202" r="18.5"/></g></g></g><g id="Laptop"><path class="cls-14" d="M493.76,619.61H102.24a6.62,6.62,0,0,1-6.63-5.13L40.37,336.92c-.77-3.86,2.41-7.42,6.63-7.42H549c4.22,0,7.4,3.56,6.63,7.42L500.39,614.48A6.62,6.62,0,0,1,493.76,619.61Z"/><rect class="cls-14" x="96.27" y="619.61" width="402.74" height="28.89" rx="3.73"/><rect class="cls-15" x="109.82" y="628.99" width="58.45" height="10.88"/><rect class="cls-15" x="427.02" y="628.62" width="58.45" height="10.88"/><rect class="cls-15" x="357.88" y="628.24" width="58.45" height="10.88"/><rect class="cls-15" x="110.53" y="616.05" width="375.65" height="7.13" rx="3.56"/><path class="cls-15" d="M265.91,490.6h64.54c-3.43,19.53-16.58,34.08-32.27,34.08S269.33,510.13,265.91,490.6Z"/><path class="cls-15" d="M331.26,483.47c0,.72-.07,1.43-.14,2.14H265.23c-.06-.71-.11-1.42-.14-2.14Z"/><path class="cls-15" d="M330.45,470.64H265.91c3.42-19.54,16.57-34.09,32.27-34.09S327,451.1,330.45,470.64Z"/><path class="cls-15" d="M331.26,477.76H265.09c0-.72.08-1.43.14-2.13h65.89C331.19,476.33,331.23,477,331.26,477.76Z"/></g></g></svg>