<svg xmlns="http://www.w3.org/2000/svg" xmlns:xlink="http://www.w3.org/1999/xlink" viewBox="0 0 377.03 470.96"><defs><style>.cls-1,.cls-6,.cls-7,.cls-8{fill:gray;}.cls-1,.cls-6{stroke:#4f4f4f;}.cls-1,.cls-18,.cls-6,.cls-8{stroke-miterlimit:10;}.cls-1{stroke-width:0.3px;}.cls-2,.cls-3{fill:#4f4f4f;}.cls-3{opacity:0.35;}.cls-4{fill:#3aae84;}.cls-5{fill:#3b5b50;}.cls-6,.cls-8{stroke-width:0.25px;}.cls-18,.cls-8{stroke:#24333b;}.cls-9{fill:#fbc2af;}.cls-10{fill:#24333b;}.cls-11{fill:#fffff8;}.cls-12{fill:#2776a9;}.cls-13{fill:#1d1f18;}.cls-14{opacity:0.65;fill:url(#linear-gradient);}.cls-15{fill:url(#linear-gradient-2);}.cls-16{fill:url(#linear-gradient-3);}.cls-17{fill:#90022b;}.cls-18{fill:none;stroke-width:3px;}.cls-19{fill:#f79277;opacity:0.58;}.cls-20{fill:#c6d1e4;}.cls-21,.cls-22{fill:#234a6d;}.cls-21{opacity:0.39;}.cls-22{opacity:0.72;}</style><linearGradient id="linear-gradient" x1="122.52" y1="182.62" x2="133.35" y2="163.86" gradientTransform="translate(301.22 47.07) rotate(90)" gradientUnits="userSpaceOnUse"><stop offset="0" stop-color="#fbc2af" stop-opacity="0.3"/><stop offset="1" stop-color="#f77768" stop-opacity="0.5"/></linearGradient><linearGradient id="linear-gradient-2" x1="-2182.79" y1="4504.23" x2="-2171.96" y2="4485.47" gradientTransform="matrix(0, -0.83, 0.45, 0, -1840.73, -1632.82)" xlink:href="#linear-gradient"/><linearGradient id="linear-gradient-3" x1="167.2" y1="184.7" x2="187.37" y2="178.92" gradientTransform="matrix(1, 0, 0, 1, 0.26, 1.6)" gradientUnits="userSpaceOnUse"><stop offset="0.01" stop-color="#fbc2af" stop-opacity="0"/><stop offset="1" stop-color="#f77768"/></linearGradient></defs><g id="Layer_2" data-name="Layer 2"><g id="Layer_6" data-name="Layer 6"><path class="cls-1" d="M81.9,239.94l-45,3.95-32,43,10.84,135s25,3.3,26-2.33c.92-5.34-7.52-73.3,28.57-163.68C72.26,250.9,79.64,245,81.9,239.94Z"/><path class="cls-2" d="M14.47,406.46,32.34,375.7l8,30S35.69,409.89,14.47,406.46Z"/><path class="cls-3" d="M47.87,262.9s-34.06,59-32.09,77,12,4.7,12,4.7Z"/><path class="cls-3" d="M58.89,250.91S72.44,242,76.17,242c-6.28,4-14.56,8.71-14.56,8.71Z"/><path class="cls-4" d="M78.9,240.94s-81,24.9-40.2,162c4.49,15.06,2.42,32.55,7.94,51,73,37.09,135,2.16,135,2.16l-6.93-57s35,19,88,13.1c-.2-4-8,2-3-17-28.82-4-60.55-41.61-81.47-116.69a16.13,16.13,0,0,0-1-2.72C164.07,248.73,136.9,238,136.9,238s11.95,45,11.94,51c-6,3-22,4-22,4S93.89,247,78.9,240.94Z"/><path class="cls-5" d="M89.79,327l34-5s1,16-11,16C98.78,341,89.79,327,89.79,327Z"/><path class="cls-5" d="M68.79,329.93l7,30s41,16.06,45,16.06-39-18.05-39-18.05Z"/><path class="cls-5" d="M38.72,383.89l8,29s48.68,8.77,77,.09c26-8,35-10.95,35-10.95s-14,13-86,31.89C61.63,436.83,38.66,433.89,38.72,383.89Z"/><path class="cls-5" d="M78.9,240.94l6-4s34,34,44.94,50.05c9-2,12-2,12-2s-4-32-10.94-46c0-5,6-1,6-1s12,21,11.94,51c-7,5-22,4-22,4S92.89,250,78.9,240.94Z"/><path class="cls-6" d="M69.78,333.93s9.08-63-5.91-73c-13.53-9.05-27,18-27,18l12-28s53-15.93,21.89,89"/><path class="cls-7" d="M29.5,275.78s5.52,5,7.65,4.44c6.71-12.32,16.18-28,16.18-28l-4.44-1.37Z"/><path class="cls-2" d="M6.84,286.85s21-25,32.05-37a118.5,118.5,0,0,1,20,0l-19,1Z"/><rect class="cls-8" x="4.55" y="338.65" width="27.46" height="66.93" rx="5.69" transform="translate(-60.44 7.96) rotate(-9.38)"/><path class="cls-9" d="M198.49,165.58c6.12,12.79,8.37,21.26,3.59,34.71-10.54,29.67-46.94,43.81-81.28,31.6-28.94-10.29-47.2-36-45.92-61.6a21.4,21.4,0,0,1-12.74,1.92c-11.2-1.72-19-11.51-17.4-21.88C46,142,53,135.79,61.5,134.6a75.78,75.78,0,0,1-8-34.1c.07-53.7,35.92-81.88,80.1-81.82,53.08.06,76.52,46.42,76.45,103.42C210,132.65,203.61,158.34,198.49,165.58Z"/><path class="cls-10" d="M87,154l4-3S73.1,114.32,108.52,78.44a5.25,5.25,0,0,1,7.15-.29C133.4,93.34,150.33,99,159.42,101a7.3,7.3,0,0,0,7.92-3.57c2.49-4.42,3.74-4.42,3.74-4.42s16.57,22,27.6,11a3.85,3.85,0,0,1,4.69-.54,10.18,10.18,0,0,0,5.19,1.21S228.49,56.65,195.74,37a1.43,1.43,0,0,0-2.11.79c-2.37,7.69-1.49,3.3-1.49,3.3s-11-22-34-26c-4,0-4,2-6,5-8-3-10.16-1.34-18-1-1-8-2-13,0-16a14.2,14.2,0,0,1-5-3l-1,13s-5-10-11-11a118.87,118.87,0,0,1-1,15s-15-5-27.91,14.68C82.15,30.94,62,33.61,53.08,87.91S87,154,87,154Z"/><path class="cls-10" d="M139,123s33.9-26.18,28.41-1.1C143.41,123,139,123,139,123Z"/><path class="cls-10" d="M192.86,135.08s22.6-17.46,18.94-.74C195.77,135.08,192.86,135.08,192.86,135.08Z"/><ellipse class="cls-11" cx="146.5" cy="153.52" rx="14.5" ry="11.5" transform="translate(-7.2 299.84) rotate(-89.93)"/><ellipse class="cls-12" cx="143.5" cy="154.52" rx="10.72" ry="8.5" transform="translate(-11.19 297.83) rotate(-89.93)"/><path class="cls-13" d="M140.18,140.36c4.07-1.66,14.78-5.13,18.79,2.33a.41.41,0,0,1-.44.59c-10.33-1.47-15.75-2-18.22-2.13A.41.41,0,0,1,140.18,140.36Z"/><ellipse class="cls-11" cx="188.7" cy="158.48" rx="11.59" ry="8.3" transform="matrix(0.15, -0.99, 0.99, 0.15, 4.35, 322)"/><ellipse class="cls-12" cx="187.1" cy="159.05" rx="8.57" ry="5.8" transform="translate(2.42 320.91) rotate(-81.6)"/><path class="cls-13" d="M184.54,148c3.26-1.33,11.82-4.11,15,1.86a.33.33,0,0,1-.35.47c-8.26-1.18-12.6-1.57-14.57-1.7A.33.33,0,0,1,184.54,148Z"/><ellipse class="cls-14" cx="127.98" cy="175" rx="10" ry="13" transform="translate(-47.18 302.76) rotate(-89.93)"/><ellipse class="cls-15" cx="195.43" cy="182.27" rx="4.53" ry="10.84" transform="translate(-18.85 22.58) rotate(-6.31)"/><path class="cls-16" d="M169,178.05s13,1,17,1c2.09,0,2.88,6.94-1.87,10.31a5,5,0,0,1-2.2.85c-11.12,1.64-13.94-1.18-13.94-1.18Z"/><path class="cls-17" d="M145.63,219c7.09,1.45,15.28-4,19.56-14.32a1.2,1.2,0,0,0-1-1.67c-11.52-.68-20.69-8.09-24.34-11.57a2,2,0,0,0-3.08.45C133.32,197.9,127.12,215.45,145.63,219Z"/><path class="cls-11" d="M158,201.78s-9.47,11.6-20.79-1.08c-3.21-6.69-.92-8.79.8-9.69.55-.29,1.24.19,1.73.56C142.53,193.68,152.8,201.14,158,201.78Z"/><path class="cls-9" d="M84.9,237s37.95,40,44.94,50.05l12-2a122.5,122.5,0,0,0-10.94-46c1-3,2-3.89,2-3.89s-33-11.15-41-22.16C91.92,226,84.9,237,84.9,237Z"/><path class="cls-9" d="M160.73,381s2.5,7,1.74,9-.77,9-.77,9,18-11,22-16,8,2,11-2,9-2,9-5a21.8,21.8,0,0,1-4-5,11.3,11.3,0,0,0,10,1c6-2,1.83-3.76,1.83-3.76s-11.82-5.25-13.82-7.26-13,2-18,7c-7,4-8,8-18,13"/><path class="cls-9" d="M256.7,401.16s5,30,46.52,0Z"/><line class="cls-18" x1="167" y1="157.05" x2="179" y2="159.06"/><line class="cls-18" x1="128.51" y1="150.5" x2="79.52" y2="138.44"/><path class="cls-19" d="M70.63,150.18A2,2,0,0,0,71.85,147,39.16,39.16,0,0,0,68,142.93a9.07,9.07,0,0,0-5.5-2.51C54,138.91,45.34,154.62,51,161.9c7,9,23,10,21,5s-10.49-6.51-7.49-12.51A7.52,7.52,0,0,1,70.63,150.18Z"/><path class="cls-9" d="M151.72,385s2.51,7,1.75,9-.77,9-.77,9,18-11,22-16,8,2,11-2,9-2,9-5a21.81,21.81,0,0,1-4-5,11.31,11.31,0,0,0,10,1c6-2,1.83-3.76,1.83-3.76s-11.82-5.25-13.81-7.26-13,2-18,7c-7,4-8,8-18,13"/><polygon class="cls-3" points="6.84 286.85 40.88 251.89 50.43 250.48 39.88 250.89 6.84 286.85"/><rect class="cls-20" x="153.71" y="390.16" width="205" height="11" rx="5.5" transform="translate(0.48 -0.31) rotate(0.07)"/><path class="cls-20" d="M352.17,391.77l-125.69-.15c-9.08,0-16.82-7.61-15.85-15.55L223,274.44c.7-5.75,5.85-9.82,12.42-9.81l125.69.15c9.08,0,16.82,7.61,15.85,15.56L364.59,382C363.89,387.71,358.74,391.78,352.17,391.77Z"/><polygon class="cls-21" points="290.74 343.97 287.53 324.26 300.11 308.75 315.89 312.94 319.09 332.66 306.52 348.17 290.74 343.97"/><rect class="cls-22" x="229.72" y="387.2" width="121" height="5" transform="translate(0.48 -0.35) rotate(0.07)"/><ellipse class="cls-18" cx="147.66" cy="154.4" rx="21.41" ry="19.16" transform="translate(-26.65 277.92) rotate(-81.6)"/><ellipse class="cls-18" cx="191.6" cy="160.08" rx="18.03" ry="12.39" transform="translate(18.07 339.6) rotate(-85.85)"/></g></g></svg>