<svg width="20" height="20" viewBox="0 0 20 20" fill="none" xmlns="http://www.w3.org/2000/svg">
<path d="M20 0V5.70435H14.0796C13.1688 4.53622 11.7424 3.78297 10.1379 3.78297C8.53332 3.78297 7.10583 4.5361 6.19507 5.70435H-1.04308e-06V0H20ZM3.99537 0.848383H2.12525C1.45948 0.848383 0.924081 1.385 0.924081 2.05078V3.61695C0.924081 4.28272 1.45948 4.81935 2.12525 4.81935H3.99537C4.66113 4.81935 5.19653 4.28273 5.19653 3.61695V2.05078C5.19653 1.38502 4.66113 0.848383 3.99537 0.848383V0.848383ZM17.8039 0.8667H17.1216V4.82055H17.8039V0.8667V0.8667ZM16.6309 0.8667H15.9277V4.82055H16.6309V0.8667V0.8667ZM15.437 0.8667H14.7546V4.82057H15.437V0.8667V0.8667ZM18.3154 0.9729V4.82055H19.0198V2.05078C19.0198 1.81128 18.9522 1.59272 18.8171 1.39527C18.6821 1.19795 18.5144 1.05747 18.3154 0.9729V0.9729ZM10.1453 4.34937C12.5713 4.34937 14.5386 6.30782 14.5386 8.72193C14.5386 11.1361 12.5713 13.0933 10.1453 13.0933C7.71923 13.0933 5.75195 11.136 5.75195 8.72193C5.75195 6.30783 7.71923 4.34937 10.1453 4.34937V4.34937ZM10.1453 5.23682C8.21085 5.23682 6.64307 6.797 6.64307 8.72192C6.64307 10.6468 8.21083 12.207 10.1453 12.207C12.0797 12.207 13.6475 10.6469 13.6475 8.72193C13.6475 6.79702 12.0797 5.23682 10.1453 5.23682V5.23682ZM20 6.51245V20H-1.04308e-06V6.51245H5.68115C5.34568 7.17668 5.15747 7.92733 5.15747 8.7207C5.15747 11.4473 7.38752 13.6572 10.1379 13.6572C12.8883 13.6572 15.1172 11.4473 15.1172 8.7207C15.1172 7.92713 14.9279 7.17678 14.5923 6.51245H20V6.51245Z" fill="white"/>
</svg>
